# xmcd CD database file
#
# Track frame offsets:
#	150
#	17937
#	33729
#	46411
#	59793
#	71452
#	81028
#	94029
#	107785
#	125939
#	149835
#	161002
#	175681
#	204744
#
# Disc length: 3326 seconds
#
# Revision: 1
# Processed by: cddbd v1.5.1PL2 Copyright (c) Steve Scherf et al.
# Submitted via: CDex 1.50
#
DISCID=d70cfc0e
DTITLE=Nova Era - Virtuosi
DYEAR=2004
DGENRE=New Age
TTITLE0=Cannon (J. Pachelbel)
TTITLE1=Seasons (A. Vivaldi)
TTITLE2=Pavane (Gabriel Faure)
TTITLE3=Concerto (various)
TTITLE4=Mostly Mozart (W.A. Mozart)
TTITLE5=Qeen of the Night (W.A. Mozart)
TTITLE6=Moonlight Sonata (Beethoven)
TTITLE7=Double Cello Concerto G Minor (A. Vivaldi)
TTITLE8=Ser No. 10 'Gran Partita: Adagio (W.A. Mozart)
TTITLE9=A Mozart Medley (W.A. Mozart)
TTITLE10=Double Vivaldi (A. Vivaldi)
TTITLE11=Arioso (J.S. Bach)
TTITLE12=Cannon Remix (J. Pachelbel)
TTITLE13=Data Track
EXTD=YEAR: 2004
EXTT0=
EXTT1=
EXTT2=
EXTT3=
EXTT4=
EXTT5=
EXTT6=
EXTT7=
EXTT8=
EXTT9=
EXTT10=
EXTT11=
EXTT12=
EXTT13=
PLAYORDER=
